<?xml version="1.0" encoding="UTF-8" standalone="no"?>
<!DOCTYPE svg PUBLIC "-//W3C//DTD SVG 1.1//EN" "http://www.w3.org/Graphics/SVG/1.1/DTD/svg11.dtd">
<!-- Generated by graphviz version 2.40.1 (20161225.0304)
 -->
<!-- Title: root Pages: 1 -->
<svg width="600pt" height="310pt" viewBox="0.00 0.00 599.98 310.40" xmlns="http://www.w3.org/2000/svg" xmlns:xlink="http://www.w3.org/1999/xlink">
<g id="graph0" class="graph" transform="scale(1 1) rotate(0) translate(4 306.4)">
<title>root</title>
<polygon fill="#ffffff" stroke="transparent" points="-4,4 -4,-306.4 595.9754,-306.4 595.9754,4 -4,4"/>
<!-- n0 -->
<g id="d9a1f445f4f24743a80a9ff42886e4cf" class="node">
<title>n0</title>
<ellipse fill="none" stroke="#000000" cx="341.0735" cy="-284.4" rx="38.8652" ry="18"/>
<text text-anchor="middle" x="341.0735" y="-280.2" font-family="Times,serif" font-size="14.00" fill="#000000">n0:root</text>
</g>
<!-- n1 -->
<g id="9d34df184354417bb6b8830b0520954d" class="node">
<title>n1</title>
<ellipse fill="none" stroke="#000000" cx="341.0735" cy="-195.6" rx="41.1471" ry="18"/>
<text text-anchor="middle" x="341.0735" y="-191.4" font-family="Times,serif" font-size="14.00" fill="#000000">n1:state</text>
</g>
<!-- n0&#45;&gt;n1 -->
<g id="7f6b317027a64230a4a25205096733da" class="edge">
<title>n0-&gt;n1</title>
<path fill="none" stroke="#000000" d="M341.0735,-266.0006C341.0735,-253.8949 341.0735,-237.8076 341.0735,-224.0674"/>
<polygon fill="#000000" stroke="#000000" points="344.5736,-223.672 341.0735,-213.672 337.5736,-223.6721 344.5736,-223.672"/>
<text text-anchor="middle" x="347.6808" y="-235.8" font-family="Times,serif" font-size="14.00" fill="#000000">e1</text>
</g>
<!-- n2 -->
<g id="5df8ac73aca54be79608fa72b519a0fe" class="node">
<title>n2</title>
<ellipse fill="none" stroke="#000000" cx="191.0735" cy="-106.8" rx="41.1471" ry="18"/>
<text text-anchor="middle" x="191.0735" y="-102.6" font-family="Times,serif" font-size="14.00" fill="#000000">n2:state</text>
</g>
<!-- n1&#45;&gt;n2 -->
<g id="60cc94f658534fa5b2533e4826523e46" class="edge">
<title>n1-&gt;n2</title>
<path fill="none" stroke="#000000" d="M293.5336,-185.9592C263.7665,-179.1467 228.8907,-169.4987 217.0861,-159.6 209.2657,-153.0423 203.5881,-143.5648 199.5716,-134.444"/>
<polygon fill="#000000" stroke="#000000" points="292.8699,-189.3971 303.3919,-188.1571 294.3932,-182.5648 292.8699,-189.3971"/>
<polygon fill="#000000" stroke="#000000" points="202.7253,-132.8965 195.8424,-124.8419 196.2002,-135.4307 202.7253,-132.8965"/>
<text text-anchor="middle" x="253.0672" y="-147" font-family="Times,serif" font-size="14.00" fill="#000000">e9:transition</text>
</g>
<!-- n6 -->
<g id="f9bdeef66aa64f338511e7b98fd1e262" class="node">
<title>n6</title>
<ellipse fill="none" stroke="#000000" cx="291.0735" cy="-106.8" rx="41.1471" ry="18"/>
<text text-anchor="middle" x="291.0735" y="-102.6" font-family="Times,serif" font-size="14.00" fill="#000000">n6:state</text>
</g>
<!-- n1&#45;&gt;n6 -->
<g id="354ad4cbebaf46fc9d05c100123385c6" class="edge">
<title>n1-&gt;n6</title>
<path fill="none" stroke="#000000" d="M316.141,-181.2442C308.43,-175.5222 300.7453,-168.2251 296.0861,-159.6 292.0858,-152.1948 290.3031,-143.3463 289.6644,-135.0293"/>
<polygon fill="#000000" stroke="#000000" points="293.1603,-134.8272 289.3864,-124.9273 286.1629,-135.0199 293.1603,-134.8272"/>
<text text-anchor="middle" x="332.0672" y="-147" font-family="Times,serif" font-size="14.00" fill="#000000">e0:transition</text>
</g>
<!-- n7 -->
<g id="6f0443b3cacd4172bb0a15904c61acb8" class="node">
<title>n7</title>
<ellipse fill="none" stroke="#000000" cx="391.0735" cy="-106.8" rx="41.1471" ry="18"/>
<text text-anchor="middle" x="391.0735" y="-102.6" font-family="Times,serif" font-size="14.00" fill="#000000">n7:state</text>
</g>
<!-- n1&#45;&gt;n7 -->
<g id="67d00e68e49841cb803d896aca5401a5" class="edge">
<title>n1-&gt;n7</title>
<path fill="none" stroke="#000000" d="M359.5574,-170.0758C361.8409,-166.6112 364.0726,-163.0576 366.0735,-159.6 370.747,-151.5239 375.2902,-142.4333 379.1931,-134.1005"/>
<polygon fill="#000000" stroke="#000000" points="356.6225,-168.1673 353.8757,-178.3999 362.4041,-172.1136 356.6225,-168.1673"/>
<polygon fill="#000000" stroke="#000000" points="382.4823,-135.3233 383.4502,-124.7727 376.1142,-132.4169 382.4823,-135.3233"/>
<text text-anchor="middle" x="410.0672" y="-147" font-family="Times,serif" font-size="14.00" fill="#000000">e2:transition</text>
</g>
<!-- n11 -->
<g id="63765b182a914724800c5555a04b084e" class="node">
<title>n11</title>
<ellipse fill="none" stroke="#000000" cx="496.0735" cy="-106.8" rx="45.8041" ry="18"/>
<text text-anchor="middle" x="496.0735" y="-102.6" font-family="Times,serif" font-size="14.00" fill="#000000">n11:state</text>
</g>
<!-- n1&#45;&gt;n11 -->
<g id="e360e5604b0d45eaa517631a9274ea29" class="edge">
<title>n1-&gt;n11</title>
<path fill="none" stroke="#000000" d="M388.4833,-185.5542C408.2807,-179.9443 430.8606,-171.6003 449.0735,-159.6 459.8529,-152.4976 469.709,-142.3176 477.5807,-132.7881"/>
<polygon fill="#000000" stroke="#000000" points="387.4762,-182.2005 378.7217,-188.168 389.2867,-188.9623 387.4762,-182.2005"/>
<polygon fill="#000000" stroke="#000000" points="480.5304,-134.6992 483.9607,-124.675 475.028,-130.3721 480.5304,-134.6992"/>
<text text-anchor="middle" x="504.0672" y="-147" font-family="Times,serif" font-size="14.00" fill="#000000">e6:transition</text>
</g>
<!-- n3 -->
<g id="3d9f6b384b914798ab83261bf3c25efa" class="node">
<title>n3</title>
<ellipse fill="none" stroke="#000000" cx="41.0735" cy="-18" rx="41.1471" ry="18"/>
<text text-anchor="middle" x="41.0735" y="-13.8" font-family="Times,serif" font-size="14.00" fill="#000000">n3:state</text>
</g>
<!-- n2&#45;&gt;n3 -->
<g id="f7d419f7bba74407977341ef12ffeb96" class="edge">
<title>n2-&gt;n3</title>
<path fill="none" stroke="#000000" d="M141.1264,-100.8642C117.5492,-95.9718 90.2349,-87.053 70.0861,-70.8 61.8688,-64.1716 55.6211,-54.5618 51.0673,-45.3521"/>
<polygon fill="#000000" stroke="#000000" points="140.4943,-104.3067 150.9703,-102.7242 141.794,-97.4284 140.4943,-104.3067"/>
<polygon fill="#000000" stroke="#000000" points="54.1871,-43.754 46.9234,-36.0411 47.7919,-46.6003 54.1871,-43.754"/>
<text text-anchor="middle" x="106.0672" y="-58.2" font-family="Times,serif" font-size="14.00" fill="#000000">e7:transition</text>
</g>
<!-- n4 -->
<g id="53d49d482b5447a8a479871208c90a7b" class="node">
<title>n4</title>
<ellipse fill="none" stroke="#000000" cx="141.0735" cy="-18" rx="41.1471" ry="18"/>
<text text-anchor="middle" x="141.0735" y="-13.8" font-family="Times,serif" font-size="14.00" fill="#000000">n4:state</text>
</g>
<!-- n2&#45;&gt;n4 -->
<g id="aa7e645f059c4df3a95abcccc10d0fa7" class="edge">
<title>n2-&gt;n4</title>
<path fill="none" stroke="#000000" d="M159.8375,-84.6659C155.6707,-80.4926 151.88,-75.8384 149.0861,-70.8 144.9761,-63.3884 142.7796,-54.5381 141.6541,-46.2214"/>
<polygon fill="#000000" stroke="#000000" points="157.8287,-87.5657 167.6098,-91.6376 162.5028,-82.3549 157.8287,-87.5657"/>
<polygon fill="#000000" stroke="#000000" points="145.1271,-45.7636 140.7379,-36.1207 138.1557,-46.3961 145.1271,-45.7636"/>
<text text-anchor="middle" x="185.0672" y="-58.2" font-family="Times,serif" font-size="14.00" fill="#000000">e8:transition</text>
</g>
<!-- n5 -->
<g id="9f8e51d802bb41fba16fdb36561c6054" class="node">
<title>n5</title>
<ellipse fill="none" stroke="#000000" cx="241.0735" cy="-18" rx="41.1471" ry="18"/>
<text text-anchor="middle" x="241.0735" y="-13.8" font-family="Times,serif" font-size="14.00" fill="#000000">n5:state</text>
</g>
<!-- n2&#45;&gt;n5 -->
<g id="142b1c1aae7c454bb40386d42d260a8f" class="edge">
<title>n2-&gt;n5</title>
<path fill="none" stroke="#000000" d="M211.8385,-81.8287C214.4287,-78.2307 216.9197,-74.4936 219.0735,-70.8 223.6756,-62.9077 227.8113,-53.8688 231.2214,-45.5268"/>
<polygon fill="#000000" stroke="#000000" points="208.982,-79.8031 205.727,-89.8855 214.5591,-84.0336 208.982,-79.8031"/>
<polygon fill="#000000" stroke="#000000" points="234.5,-46.7527 234.8757,-36.1646 227.9792,-44.2074 234.5,-46.7527"/>
<text text-anchor="middle" x="266.5672" y="-58.2" font-family="Times,serif" font-size="14.00" fill="#000000">e10:transition</text>
</g>
<!-- n8 -->
<g id="db42495897e74254b5f3396c438d0bc0" class="node">
<title>n8</title>
<ellipse fill="none" stroke="#000000" cx="341.0735" cy="-18" rx="41.1471" ry="18"/>
<text text-anchor="middle" x="341.0735" y="-13.8" font-family="Times,serif" font-size="14.00" fill="#000000">n8:state</text>
</g>
<!-- n7&#45;&gt;n8 -->
<g id="d0877b3a6f744ed5996dc4a55eb67b4f" class="edge">
<title>n7-&gt;n8</title>
<path fill="none" stroke="#000000" d="M359.8375,-84.6659C355.6707,-80.4926 351.88,-75.8384 349.0861,-70.8 344.9761,-63.3884 342.7796,-54.5381 341.6541,-46.2214"/>
<polygon fill="#000000" stroke="#000000" points="357.8287,-87.5657 367.6098,-91.6376 362.5028,-82.3549 357.8287,-87.5657"/>
<polygon fill="#000000" stroke="#000000" points="345.1271,-45.7636 340.7379,-36.1207 338.1557,-46.3961 345.1271,-45.7636"/>
<text text-anchor="middle" x="385.0672" y="-58.2" font-family="Times,serif" font-size="14.00" fill="#000000">e3:transition</text>
</g>
<!-- n9 -->
<g id="deb4d0a5b5f64279a3c141e95cdfc484" class="node">
<title>n9</title>
<ellipse fill="none" stroke="#000000" cx="441.0735" cy="-18" rx="41.1471" ry="18"/>
<text text-anchor="middle" x="441.0735" y="-13.8" font-family="Times,serif" font-size="14.00" fill="#000000">n9:state</text>
</g>
<!-- n7&#45;&gt;n9 -->
<g id="f6d20a6913be4b8ebf730450ca8cae96" class="edge">
<title>n7-&gt;n9</title>
<path fill="none" stroke="#000000" d="M411.8385,-81.8287C414.4287,-78.2307 416.9197,-74.4936 419.0735,-70.8 423.6756,-62.9077 427.8113,-53.8688 431.2214,-45.5268"/>
<polygon fill="#000000" stroke="#000000" points="408.982,-79.8031 405.727,-89.8855 414.5591,-84.0336 408.982,-79.8031"/>
<polygon fill="#000000" stroke="#000000" points="434.5,-46.7527 434.8757,-36.1646 427.9792,-44.2074 434.5,-46.7527"/>
<text text-anchor="middle" x="463.0672" y="-58.2" font-family="Times,serif" font-size="14.00" fill="#000000">e4:transition</text>
</g>
<!-- n10 -->
<g id="33850ff144ed49f3a19ea5e67e3d4ea6" class="node">
<title>n10</title>
<ellipse fill="none" stroke="#000000" cx="546.0735" cy="-18" rx="45.8041" ry="18"/>
<text text-anchor="middle" x="546.0735" y="-13.8" font-family="Times,serif" font-size="14.00" fill="#000000">n10:state</text>
</g>
<!-- n7&#45;&gt;n10 -->
<g id="79e550e24b554bdc9e0f1ef54888553a" class="edge">
<title>n7-&gt;n10</title>
<path fill="none" stroke="#000000" d="M432.2252,-91.7698C435.2128,-90.7449 438.1854,-89.7451 441.0735,-88.8 467.9385,-80.009 478.4526,-86.3263 502.0735,-70.8 512.7161,-63.8045 522.1328,-53.4639 529.4959,-43.7837"/>
<polygon fill="#000000" stroke="#000000" points="431.003,-88.4893 422.7173,-95.0921 433.3121,-95.0975 431.003,-88.4893"/>
<polygon fill="#000000" stroke="#000000" points="532.4215,-45.7101 535.4169,-35.5475 526.7378,-41.6241 532.4215,-45.7101"/>
<text text-anchor="middle" x="556.0672" y="-58.2" font-family="Times,serif" font-size="14.00" fill="#000000">e5:transition</text>
</g>
</g>
</svg>