<?xml version="1.0" encoding="UTF-8" standalone="no"?>
<!DOCTYPE svg PUBLIC "-//W3C//DTD SVG 1.1//EN" "http://www.w3.org/Graphics/SVG/1.1/DTD/svg11.dtd">
<!-- Generated by graphviz version 2.40.1 (20161225.0304)
 -->
<!-- Title: root Pages: 1 -->
<svg width="496pt" height="310pt" viewBox="0.00 0.00 496.06 310.40" xmlns="http://www.w3.org/2000/svg" xmlns:xlink="http://www.w3.org/1999/xlink">
<g id="graph0" class="graph" transform="scale(1 1) rotate(0) translate(4 306.4)">
<title>root</title>
<polygon fill="#ffffff" stroke="transparent" points="-4,4 -4,-306.4 492.0609,-306.4 492.0609,4 -4,4"/>
<!-- n0 -->
<g id="19779127553d4a8ca62e87946f04e25a" class="node">
<title>n0</title>
<ellipse fill="none" stroke="#000000" cx="291.0735" cy="-284.4" rx="38.8652" ry="18"/>
<text text-anchor="middle" x="291.0735" y="-280.2" font-family="Times,serif" font-size="14.00" fill="#000000">n0:root</text>
</g>
<!-- n1 -->
<g id="d1d9ed8ac85a4ee19fd763639f0bf081" class="node">
<title>n1</title>
<ellipse fill="none" stroke="#000000" cx="291.0735" cy="-195.6" rx="41.1471" ry="18"/>
<text text-anchor="middle" x="291.0735" y="-191.4" font-family="Times,serif" font-size="14.00" fill="#000000">n1:state</text>
</g>
<!-- n0&#45;&gt;n1 -->
<g id="d57227e533544806aebdaeb4b08562b6" class="edge">
<title>n0-&gt;n1</title>
<path fill="none" stroke="#000000" d="M291.0735,-266.0006C291.0735,-253.8949 291.0735,-237.8076 291.0735,-224.0674"/>
<polygon fill="#000000" stroke="#000000" points="294.5736,-223.672 291.0735,-213.672 287.5736,-223.6721 294.5736,-223.672"/>
<text text-anchor="middle" x="297.6808" y="-235.8" font-family="Times,serif" font-size="14.00" fill="#000000">e6</text>
</g>
<!-- n2 -->
<g id="9fdf744331c34add83d59ecda5beb768" class="node">
<title>n2</title>
<ellipse fill="none" stroke="#000000" cx="141.0735" cy="-106.8" rx="41.1471" ry="18"/>
<text text-anchor="middle" x="141.0735" y="-102.6" font-family="Times,serif" font-size="14.00" fill="#000000">n2:state</text>
</g>
<!-- n1&#45;&gt;n2 -->
<g id="74f4d720b5e742fb81b981ec892a5988" class="edge">
<title>n1-&gt;n2</title>
<path fill="none" stroke="#000000" d="M241.1264,-189.6642C217.5492,-184.7718 190.2349,-175.853 170.0861,-159.6 161.8688,-152.9716 155.6211,-143.3618 151.0673,-134.1521"/>
<polygon fill="#000000" stroke="#000000" points="240.4943,-193.1067 250.9703,-191.5242 241.794,-186.2284 240.4943,-193.1067"/>
<polygon fill="#000000" stroke="#000000" points="154.1871,-132.554 146.9234,-124.8411 147.7919,-135.4003 154.1871,-132.554"/>
<text text-anchor="middle" x="206.0672" y="-147" font-family="Times,serif" font-size="14.00" fill="#000000">e2:transition</text>
</g>
<!-- n6 -->
<g id="80e9dd6329ce40bd849832ac70b4eaf5" class="node">
<title>n6</title>
<ellipse fill="none" stroke="#000000" cx="241.0735" cy="-106.8" rx="41.1471" ry="18"/>
<text text-anchor="middle" x="241.0735" y="-102.6" font-family="Times,serif" font-size="14.00" fill="#000000">n6:state</text>
</g>
<!-- n1&#45;&gt;n6 -->
<g id="3ef3557fa9a14e2caf29a9f05271bf83" class="edge">
<title>n1-&gt;n6</title>
<path fill="none" stroke="#000000" d="M267.6098,-180.4376C260.5784,-174.7393 253.5564,-167.6615 249.0861,-159.6 244.9761,-152.1884 242.7796,-143.3381 241.6541,-135.0214"/>
<polygon fill="#000000" stroke="#000000" points="245.1271,-134.5636 240.7379,-124.9207 238.1557,-135.1961 245.1271,-134.5636"/>
<text text-anchor="middle" x="285.0672" y="-147" font-family="Times,serif" font-size="14.00" fill="#000000">e3:transition</text>
</g>
<!-- n7 -->
<g id="ed615ec25d42464d8ec2fd42b99954f5" class="node">
<title>n7</title>
<ellipse fill="none" stroke="#000000" cx="341.0735" cy="-106.8" rx="41.1471" ry="18"/>
<text text-anchor="middle" x="341.0735" y="-102.6" font-family="Times,serif" font-size="14.00" fill="#000000">n7:state</text>
</g>
<!-- n1&#45;&gt;n7 -->
<g id="fe5a0ddaf83c48ff96f534a0feb42a4c" class="edge">
<title>n1-&gt;n7</title>
<path fill="none" stroke="#000000" d="M311.8385,-170.6287C314.4287,-167.0307 316.9197,-163.2936 319.0735,-159.6 323.6756,-151.7077 327.8113,-142.6688 331.2214,-134.3268"/>
<polygon fill="#000000" stroke="#000000" points="308.982,-168.6031 305.727,-178.6855 314.5591,-172.8336 308.982,-168.6031"/>
<polygon fill="#000000" stroke="#000000" points="334.5,-135.5527 334.8757,-124.9646 327.9792,-133.0074 334.5,-135.5527"/>
<text text-anchor="middle" x="363.0672" y="-147" font-family="Times,serif" font-size="14.00" fill="#000000">e4:transition</text>
</g>
<!-- n8 -->
<g id="c69ec24bc4994021a3b920a83ed20a1b" class="node">
<title>n8</title>
<ellipse fill="none" stroke="#000000" cx="441.0735" cy="-106.8" rx="41.1471" ry="18"/>
<text text-anchor="middle" x="441.0735" y="-102.6" font-family="Times,serif" font-size="14.00" fill="#000000">n8:state</text>
</g>
<!-- n1&#45;&gt;n8 -->
<g id="559ddbef20e54e828791fad71b354f02" class="edge">
<title>n1-&gt;n8</title>
<path fill="none" stroke="#000000" d="M339.6037,-186.7879C360.2315,-181.3647 383.7071,-172.8263 402.0735,-159.6 411.6044,-152.7364 419.7823,-142.8415 426.1518,-133.4685"/>
<polygon fill="#000000" stroke="#000000" points="338.6194,-183.4255 329.741,-189.2069 340.2869,-190.2241 338.6194,-183.4255"/>
<polygon fill="#000000" stroke="#000000" points="429.2781,-135.0747 431.6897,-124.7579 423.3709,-131.319 429.2781,-135.0747"/>
<text text-anchor="middle" x="453.0672" y="-147" font-family="Times,serif" font-size="14.00" fill="#000000">e5:transition</text>
</g>
<!-- n3 -->
<g id="7e067e6f5f944bfaaf137eaa5b499d0b" class="node">
<title>n3</title>
<ellipse fill="none" stroke="#000000" cx="41.0735" cy="-18" rx="41.1471" ry="18"/>
<text text-anchor="middle" x="41.0735" y="-13.8" font-family="Times,serif" font-size="14.00" fill="#000000">n3:state</text>
</g>
<!-- n2&#45;&gt;n3 -->
<g id="9b9e26eb6655432aa2d13f5d4ed59d7f" class="edge">
<title>n2-&gt;n3</title>
<path fill="none" stroke="#000000" d="M98.6234,-92.001C87.393,-86.6119 75.9461,-79.6166 67.0861,-70.8 59.958,-63.7069 54.4663,-54.2651 50.4062,-45.3284"/>
<polygon fill="#000000" stroke="#000000" points="97.3857,-95.2811 107.9445,-96.1547 100.2351,-88.8873 97.3857,-95.2811"/>
<polygon fill="#000000" stroke="#000000" points="53.595,-43.8799 46.5527,-35.9643 47.1217,-46.5439 53.595,-43.8799"/>
<text text-anchor="middle" x="103.0672" y="-58.2" font-family="Times,serif" font-size="14.00" fill="#000000">e7:transition</text>
</g>
<!-- n4 -->
<g id="2e3310a48eed406b81c186d09150cac9" class="node">
<title>n4</title>
<ellipse fill="none" stroke="#000000" cx="141.0735" cy="-18" rx="41.1471" ry="18"/>
<text text-anchor="middle" x="141.0735" y="-13.8" font-family="Times,serif" font-size="14.00" fill="#000000">n4:state</text>
</g>
<!-- n2&#45;&gt;n4 -->
<g id="76e963f557b743da8063a8e18ef81e84" class="edge">
<title>n2-&gt;n4</title>
<path fill="none" stroke="#000000" d="M141.0735,-78.368C141.0735,-68.0722 141.0735,-56.4548 141.0735,-46.1807"/>
<polygon fill="#000000" stroke="#000000" points="137.5736,-78.4005 141.0735,-88.4006 144.5736,-78.4006 137.5736,-78.4005"/>
<polygon fill="#000000" stroke="#000000" points="144.5736,-46.072 141.0735,-36.072 137.5736,-46.0721 144.5736,-46.072"/>
<text text-anchor="middle" x="176.0672" y="-58.2" font-family="Times,serif" font-size="14.00" fill="#000000">e1:transition</text>
</g>
<!-- n5 -->
<g id="b0f4f7d2e1b14279a51eb050c712c6f3" class="node">
<title>n5</title>
<ellipse fill="none" stroke="#000000" cx="241.0735" cy="-18" rx="41.1471" ry="18"/>
<text text-anchor="middle" x="241.0735" y="-13.8" font-family="Times,serif" font-size="14.00" fill="#000000">n5:state</text>
</g>
<!-- n2&#45;&gt;n5 -->
<g id="00fbf6d37ef94222a29ed2bbdc136a69" class="edge">
<title>n2-&gt;n5</title>
<path fill="none" stroke="#000000" d="M183.5318,-92.0033C194.7642,-86.6142 206.2128,-79.6183 215.0735,-70.8 222.2004,-63.7071 227.69,-54.2654 231.7479,-45.3286"/>
<polygon fill="#000000" stroke="#000000" points="181.9191,-88.89 174.2091,-96.1568 184.768,-95.2841 181.9191,-88.89"/>
<polygon fill="#000000" stroke="#000000" points="235.0324,-46.5442 235.599,-35.9645 228.5585,-43.8817 235.0324,-46.5442"/>
<text text-anchor="middle" x="263.0672" y="-58.2" font-family="Times,serif" font-size="14.00" fill="#000000">e0:transition</text>
</g>
</g>
</svg>