<?xml version="1.0" encoding="UTF-8" standalone="no"?>
<!DOCTYPE svg PUBLIC "-//W3C//DTD SVG 1.1//EN" "http://www.w3.org/Graphics/SVG/1.1/DTD/svg11.dtd">
<!-- Generated by graphviz version 2.40.1 (20161225.0304)
 -->
<!-- Title: root Pages: 1 -->
<svg width="1136pt" height="310pt" viewBox="0.00 0.00 1135.81 310.40" xmlns="http://www.w3.org/2000/svg" xmlns:xlink="http://www.w3.org/1999/xlink">
<g id="graph0" class="graph" transform="scale(1 1) rotate(0) translate(4 306.4)">
<title>root</title>
<polygon fill="#ffffff" stroke="transparent" points="-4,4 -4,-306.4 1131.8123,-306.4 1131.8123,4 -4,4"/>
<!-- n0 -->
<g id="4a3b858655e24028ae4ebedc54dabcc3" class="node">
<title>n0</title>
<ellipse fill="none" stroke="#000000" cx="669.8249" cy="-284.4" rx="38.8652" ry="18"/>
<text text-anchor="middle" x="669.8249" y="-280.2" font-family="Times,serif" font-size="14.00" fill="#000000">n0:root</text>
</g>
<!-- n1 -->
<g id="426e29f213ff493e88b0e0758702f088" class="node">
<title>n1</title>
<ellipse fill="none" stroke="#000000" cx="669.8249" cy="-195.6" rx="41.1471" ry="18"/>
<text text-anchor="middle" x="669.8249" y="-191.4" font-family="Times,serif" font-size="14.00" fill="#000000">n1:state</text>
</g>
<!-- n0&#45;&gt;n1 -->
<g id="25ee30222cca43ffbf5e17e9042784ab" class="edge">
<title>n0-&gt;n1</title>
<path fill="none" stroke="#000000" d="M669.8249,-266.0006C669.8249,-253.8949 669.8249,-237.8076 669.8249,-224.0674"/>
<polygon fill="#000000" stroke="#000000" points="673.325,-223.672 669.8249,-213.672 666.325,-223.6721 673.325,-223.672"/>
<text text-anchor="middle" x="676.4322" y="-235.8" font-family="Times,serif" font-size="14.00" fill="#000000">e9</text>
</g>
<!-- n2 -->
<g id="2e6e81a6329442479520e9eeb4adf46d" class="node">
<title>n2</title>
<ellipse fill="none" stroke="#000000" cx="308.8249" cy="-106.8" rx="41.1471" ry="18"/>
<text text-anchor="middle" x="308.8249" y="-102.6" font-family="Times,serif" font-size="14.00" fill="#000000">n2:state</text>
</g>
<!-- n1&#45;&gt;n2 -->
<g id="ddc78b20ddad48a4b8233a80f30f6db4" class="edge">
<title>n1-&gt;n2</title>
<path fill="none" stroke="#000000" d="M628.6631,-194.4946C554.636,-191.9187 402.4072,-183.7699 355.8375,-159.6 343.8372,-153.3718 333.4596,-142.7273 325.5302,-132.6203"/>
<polygon fill="#000000" stroke="#000000" points="328.2058,-130.3508 319.4634,-124.3657 322.5653,-134.4963 328.2058,-130.3508"/>
<text text-anchor="middle" x="395.3186" y="-147" font-family="Times,serif" font-size="14.00" fill="#000000">e15:transition</text>
</g>
<!-- n6 -->
<g id="11a7ae1073df43c8a4b5f99cd7e2d5f9" class="node">
<title>n6</title>
<ellipse fill="none" stroke="#000000" cx="576.8249" cy="-106.8" rx="41.1471" ry="18"/>
<text text-anchor="middle" x="576.8249" y="-102.6" font-family="Times,serif" font-size="14.00" fill="#000000">n6:state</text>
</g>
<!-- n1&#45;&gt;n6 -->
<g id="4c91e36af9844155907805f5ab43d67a" class="edge">
<title>n1-&gt;n6</title>
<path fill="none" stroke="#000000" d="M634.5069,-186.1912C611.5671,-179.2932 584.6995,-169.4501 577.8375,-159.6 572.9194,-152.5403 571.4709,-143.5612 571.6092,-135.0187"/>
<polygon fill="#000000" stroke="#000000" points="575.1038,-135.2275 572.4383,-124.9735 568.1275,-134.6517 575.1038,-135.2275"/>
<text text-anchor="middle" x="613.8186" y="-147" font-family="Times,serif" font-size="14.00" fill="#000000">e4:transition</text>
</g>
<!-- n7 -->
<g id="1aa1e34afed74078b6ceda5aca0e6734" class="node">
<title>n7</title>
<ellipse fill="none" stroke="#000000" cx="772.8249" cy="-106.8" rx="41.1471" ry="18"/>
<text text-anchor="middle" x="772.8249" y="-102.6" font-family="Times,serif" font-size="14.00" fill="#000000">n7:state</text>
</g>
<!-- n1&#45;&gt;n7 -->
<g id="79a22357b55341c99bec319d4a826b45" class="edge">
<title>n1-&gt;n7</title>
<path fill="none" stroke="#000000" d="M665.3213,-177.3435C663.7055,-166.3434 663.7534,-152.6122 670.8375,-142.8 677.786,-133.1757 702.749,-124.2766 726.2369,-117.734"/>
<polygon fill="#000000" stroke="#000000" points="727.401,-121.0457 736.156,-115.0791 725.5911,-114.2838 727.401,-121.0457"/>
<text text-anchor="middle" x="710.3186" y="-147" font-family="Times,serif" font-size="14.00" fill="#000000">e14:transition</text>
</g>
<!-- n11 -->
<g id="4da8f64c4ee74eeba9e122408a634b16" class="node">
<title>n11</title>
<ellipse fill="none" stroke="#000000" cx="921.8249" cy="-106.8" rx="45.8041" ry="18"/>
<text text-anchor="middle" x="921.8249" y="-102.6" font-family="Times,serif" font-size="14.00" fill="#000000">n11:state</text>
</g>
<!-- n1&#45;&gt;n11 -->
<g id="6b52c6e4b69647e8b69da3742a5ab451" class="edge">
<title>n1-&gt;n11</title>
<path fill="none" stroke="#000000" d="M710.0257,-191.5262C745.717,-186.9074 798.739,-177.5554 841.8249,-159.6 852.0554,-155.3366 873.2985,-141.215 891.3243,-128.6483"/>
<polygon fill="#000000" stroke="#000000" points="893.6838,-131.268 899.8524,-122.6541 889.6585,-125.5411 893.6838,-131.268"/>
<text text-anchor="middle" x="905.8186" y="-147" font-family="Times,serif" font-size="14.00" fill="#000000">e1:transition</text>
</g>
<!-- n2&#45;&gt;n1 -->
<g id="1abec0289f7540f0846528a7823b681f" class="edge">
<title>n2-&gt;n1</title>
<path fill="none" stroke="#000000" d="M342.9795,-116.9966C380.8836,-128.1472 443.9539,-146.2113 498.8375,-159.6 540.1027,-169.6666 587.378,-179.4906 621.7452,-186.3261"/>
<polygon fill="#000000" stroke="#000000" points="621.4865,-189.8426 631.9755,-188.3485 622.8441,-182.9755 621.4865,-189.8426"/>
<text text-anchor="middle" x="534.8186" y="-147" font-family="Times,serif" font-size="14.00" fill="#000000">e7:transition</text>
</g>
<!-- n3 -->
<g id="66bc61e4823d49dd8d2796ad85332df0" class="node">
<title>n3</title>
<ellipse fill="none" stroke="#000000" cx="78.8249" cy="-18" rx="41.1471" ry="18"/>
<text text-anchor="middle" x="78.8249" y="-13.8" font-family="Times,serif" font-size="14.00" fill="#000000">n3:state</text>
</g>
<!-- n2&#45;&gt;n3 -->
<g id="b070a10d30e340ef8f976f547faab44b" class="edge">
<title>n2-&gt;n3</title>
<path fill="none" stroke="#000000" d="M267.8987,-104.9254C188.9878,-100.8897 22.0242,-90.1421 4.8375,-70.8 -9.2116,-54.9889 11.7322,-41.2605 34.8778,-31.7681"/>
<polygon fill="#000000" stroke="#000000" points="36.396,-34.9347 44.4843,-28.0914 33.8939,-28.3971 36.396,-34.9347"/>
<text text-anchor="middle" x="44.3186" y="-58.2" font-family="Times,serif" font-size="14.00" fill="#000000">e11:transition</text>
</g>
<!-- n4 -->
<g id="c09d483c4c1340849598b5478cb0ccb2" class="node">
<title>n4</title>
<ellipse fill="none" stroke="#000000" cx="228.8249" cy="-18" rx="41.1471" ry="18"/>
<text text-anchor="middle" x="228.8249" y="-13.8" font-family="Times,serif" font-size="14.00" fill="#000000">n4:state</text>
</g>
<!-- n2&#45;&gt;n4 -->
<g id="2bd78affc1b24a6f86b2fb4acec5a0d6" class="edge">
<title>n2-&gt;n4</title>
<path fill="none" stroke="#000000" d="M271.3839,-99.1871C243.676,-92.7046 209.3303,-82.5836 200.8375,-70.8 194.5211,-62.0362 197.9731,-51.6665 204.2921,-42.4472"/>
<polygon fill="#000000" stroke="#000000" points="207.2198,-44.3887 210.7032,-34.3829 201.7404,-40.0325 207.2198,-44.3887"/>
<text text-anchor="middle" x="240.3186" y="-58.2" font-family="Times,serif" font-size="14.00" fill="#000000">e18:transition</text>
</g>
<!-- n5 -->
<g id="06add237a7ea4c7c9a9aff67930f30da" class="node">
<title>n5</title>
<ellipse fill="none" stroke="#000000" cx="442.8249" cy="-18" rx="41.1471" ry="18"/>
<text text-anchor="middle" x="442.8249" y="-13.8" font-family="Times,serif" font-size="14.00" fill="#000000">n5:state</text>
</g>
<!-- n2&#45;&gt;n5 -->
<g id="2b0223d3b0ce47a586d5382b2c5fb194" class="edge">
<title>n2-&gt;n5</title>
<path fill="none" stroke="#000000" d="M333.4491,-92.2671C344.1173,-85.8448 356.6885,-78.1063 367.8249,-70.8 382.897,-60.9116 399.3049,-49.4439 412.92,-39.7273"/>
<polygon fill="#000000" stroke="#000000" points="415.3358,-42.3017 421.4216,-33.6292 411.2558,-36.6137 415.3358,-42.3017"/>
<text text-anchor="middle" x="425.8186" y="-58.2" font-family="Times,serif" font-size="14.00" fill="#000000">e3:transition</text>
</g>
<!-- n3&#45;&gt;n2 -->
<g id="ed4f59a0cad04ac1bbce2051b3916b8f" class="edge">
<title>n3-&gt;n2</title>
<path fill="none" stroke="#000000" d="M87.0836,-35.7286C93.5185,-47.5368 103.5864,-62.3794 116.8375,-70.8 139.8846,-85.4456 209.9125,-95.9114 258.6909,-101.6604"/>
<polygon fill="#000000" stroke="#000000" points="258.4187,-105.152 268.7526,-102.8154 259.2171,-98.1977 258.4187,-105.152"/>
<text text-anchor="middle" x="156.3186" y="-58.2" font-family="Times,serif" font-size="14.00" fill="#000000">e17:transition</text>
</g>
<!-- n4&#45;&gt;n2 -->
<g id="3b0e5185d8614ec5b5f76bca02ba87ae" class="edge">
<title>n4-&gt;n2</title>
<path fill="none" stroke="#000000" d="M254.863,-32.0041C264.18,-37.9075 274.2409,-45.4124 281.8249,-54 288.4314,-61.4808 293.906,-70.8669 298.1587,-79.6428"/>
<polygon fill="#000000" stroke="#000000" points="294.9892,-81.1286 302.2894,-88.807 301.3709,-78.252 294.9892,-81.1286"/>
<text text-anchor="middle" x="328.8186" y="-58.2" font-family="Times,serif" font-size="14.00" fill="#000000">e2:transition</text>
</g>
<!-- n5&#45;&gt;n2 -->
<g id="bb68802a4f65497884c57af1a28e1826" class="edge">
<title>n5-&gt;n2</title>
<path fill="none" stroke="#000000" d="M458.3373,-34.9612C466.4983,-45.9898 473.2328,-60.2308 464.8249,-70.8 451.7442,-87.2431 399.7041,-96.8205 359.2839,-101.9066"/>
<polygon fill="#000000" stroke="#000000" points="358.8012,-98.4393 349.2887,-103.1043 359.6341,-105.3895 358.8012,-98.4393"/>
<text text-anchor="middle" x="507.3186" y="-58.2" font-family="Times,serif" font-size="14.00" fill="#000000">e12:transition</text>
</g>
<!-- n7&#45;&gt;n1 -->
<g id="97b53877e76a47a1b0a2a43feab2c2f5" class="edge">
<title>n7-&gt;n1</title>
<path fill="none" stroke="#000000" d="M767.7828,-124.8296C763.8789,-136.0189 757.4819,-150.0372 747.8249,-159.6 738.3756,-168.9571 726.0464,-176.1633 713.9897,-181.5818"/>
<polygon fill="#000000" stroke="#000000" points="712.3302,-178.4812 704.4391,-185.5509 715.0166,-184.9452 712.3302,-178.4812"/>
<text text-anchor="middle" x="799.3186" y="-147" font-family="Times,serif" font-size="14.00" fill="#000000">e19:transition</text>
</g>
<!-- n8 -->
<g id="9c9fafa1ade84f0c8fced3b3b64b65df" class="node">
<title>n8</title>
<ellipse fill="none" stroke="#000000" cx="632.8249" cy="-18" rx="41.1471" ry="18"/>
<text text-anchor="middle" x="632.8249" y="-13.8" font-family="Times,serif" font-size="14.00" fill="#000000">n8:state</text>
</g>
<!-- n7&#45;&gt;n8 -->
<g id="301efea1a46b4d9281cfe1a2f3088085" class="edge">
<title>n7-&gt;n8</title>
<path fill="none" stroke="#000000" d="M733.2514,-101.6583C682.4774,-94.6592 599.8334,-81.7497 590.8375,-70.8 582.3202,-60.4328 589.8347,-48.7705 600.7379,-39.0484"/>
<polygon fill="#000000" stroke="#000000" points="603.0731,-41.6618 608.6722,-32.6674 598.6861,-36.207 603.0731,-41.6618"/>
<text text-anchor="middle" x="626.8186" y="-58.2" font-family="Times,serif" font-size="14.00" fill="#000000">e0:transition</text>
</g>
<!-- n9 -->
<g id="4fd865087489442ebb1b61483bf7cabe" class="node">
<title>n9</title>
<ellipse fill="none" stroke="#000000" cx="819.8249" cy="-18" rx="41.1471" ry="18"/>
<text text-anchor="middle" x="819.8249" y="-13.8" font-family="Times,serif" font-size="14.00" fill="#000000">n9:state</text>
</g>
<!-- n7&#45;&gt;n9 -->
<g id="02bf5c45a4cb4014a2537dc7ededb8b4" class="edge">
<title>n7-&gt;n9</title>
<path fill="none" stroke="#000000" d="M770.814,-88.7436C770.4252,-78.079 771.3746,-64.6294 776.8375,-54 779.5741,-48.6754 783.4767,-43.8314 787.8272,-39.5444"/>
<polygon fill="#000000" stroke="#000000" points="790.2306,-42.0921 795.4449,-32.8692 785.6172,-36.8274 790.2306,-42.0921"/>
<text text-anchor="middle" x="812.8186" y="-58.2" font-family="Times,serif" font-size="14.00" fill="#000000">e6:transition</text>
</g>
<!-- n10 -->
<g id="f75f6db7da9e4e28956d069f216f04b3" class="node">
<title>n10</title>
<ellipse fill="none" stroke="#000000" cx="1018.8249" cy="-18" rx="45.8041" ry="18"/>
<text text-anchor="middle" x="1018.8249" y="-13.8" font-family="Times,serif" font-size="14.00" fill="#000000">n10:state</text>
</g>
<!-- n7&#45;&gt;n10 -->
<g id="4cb4f8ea756749f1845fc43ef57915cd" class="edge">
<title>n7-&gt;n10</title>
<path fill="none" stroke="#000000" d="M810.7214,-99.5983C850.2379,-91.8343 909.3548,-79.4308 930.8249,-70.8 950.9102,-62.7259 971.7525,-50.4225 988.109,-39.723"/>
<polygon fill="#000000" stroke="#000000" points="990.3316,-42.4473 996.7011,-33.9809 986.4421,-36.6273 990.3316,-42.4473"/>
<text text-anchor="middle" x="1001.3186" y="-58.2" font-family="Times,serif" font-size="14.00" fill="#000000">e16:transition</text>
</g>
<!-- n8&#45;&gt;n7 -->
<g id="3d7fc77758214fecbec0b97f8ee1d1ae" class="edge">
<title>n8-&gt;n7</title>
<path fill="none" stroke="#000000" d="M650.7265,-34.4664C663.3208,-45.5552 680.8886,-60.0591 697.8375,-70.8 709.0025,-77.8755 721.7698,-84.4936 733.5662,-90.0768"/>
<polygon fill="#000000" stroke="#000000" points="732.2229,-93.3115 742.7695,-94.3215 735.1547,-86.955 732.2229,-93.3115"/>
<text text-anchor="middle" x="733.8186" y="-58.2" font-family="Times,serif" font-size="14.00" fill="#000000">e5:transition</text>
</g>
<!-- n9&#45;&gt;n7 -->
<g id="da6169d482884b329bf0b657822a87b1" class="edge">
<title>n9-&gt;n7</title>
<path fill="none" stroke="#000000" d="M837.3615,-34.5761C846.401,-45.1856 854.1416,-59.1039 846.8249,-70.8 840.2542,-81.3035 829.6438,-88.8219 818.4844,-94.1723"/>
<polygon fill="#000000" stroke="#000000" points="816.8948,-91.0448 809.058,-98.1747 819.6306,-97.488 816.8948,-91.0448"/>
<text text-anchor="middle" x="888.3186" y="-58.2" font-family="Times,serif" font-size="14.00" fill="#000000">e13:transition</text>
</g>
<!-- n10&#45;&gt;n7 -->
<g id="79c656706d954cd9812ec709699e90f7" class="edge">
<title>n10-&gt;n7</title>
<path fill="none" stroke="#000000" d="M1037.3116,-34.5456C1047.5457,-45.6697 1056.4328,-60.1834 1046.8249,-70.8 1033.3379,-85.703 886.7154,-85.907 866.8249,-88.8 851.5946,-91.0152 835.0798,-93.9838 820.2038,-96.8706"/>
<polygon fill="#000000" stroke="#000000" points="819.3351,-93.4745 810.2028,-98.8459 820.6915,-100.3419 819.3351,-93.4745"/>
<text text-anchor="middle" x="1089.3186" y="-58.2" font-family="Times,serif" font-size="14.00" fill="#000000">e10:transition</text>
</g>
<!-- n11&#45;&gt;n1 -->
<g id="c9778dd613044baeb9c98178f0945d54" class="edge">
<title>n11-&gt;n1</title>
<path fill="none" stroke="#000000" d="M936.1901,-124.1586C943.647,-135.3549 949.5549,-149.6336 940.8249,-159.6 926.5815,-175.8606 795.3657,-187.2094 720.8766,-192.4024"/>
<polygon fill="#000000" stroke="#000000" points="720.4983,-188.92 710.7604,-193.0941 720.9759,-195.9037 720.4983,-188.92"/>
<text text-anchor="middle" x="979.8186" y="-147" font-family="Times,serif" font-size="14.00" fill="#000000">e8:transition</text>
</g>
</g>
</svg>